<svg width="488" height="197" viewBox="0 0 488 197" fill="none" xmlns="http://www.w3.org/2000/svg">
<path d="M439.663 169.262C441.695 169.262 443.348 169.699 444.622 170.573C445.644 171.266 446.423 172.104 446.959 173.084L447.632 169.813H450.907L447.273 186.988C446.579 190.23 445.317 192.707 443.488 194.416C441.67 196.139 439.241 196.999 436.199 196.999C434.862 196.999 433.537 196.854 432.225 196.563C430.913 196.272 429.689 195.797 428.553 195.138L430.048 192.269C431.058 192.788 432.086 193.175 433.133 193.428C434.193 193.694 435.241 193.827 436.276 193.827C438.32 193.827 439.986 193.302 441.273 192.25C442.572 191.199 443.418 189.736 443.809 187.862L444.251 185.832C443.576 186.577 442.805 187.21 441.935 187.729C440.799 188.4 439.398 188.736 437.733 188.736C435.941 188.736 434.395 188.368 433.095 187.633C431.808 186.886 430.811 185.879 430.105 184.613C429.411 183.346 429.064 181.915 429.064 180.319C429.064 178.799 429.335 177.374 429.877 176.044C430.42 174.714 431.171 173.543 432.13 172.53C433.102 171.504 434.225 170.706 435.499 170.136C436.786 169.554 438.174 169.262 439.663 169.262ZM331.668 169.262C333.51 169.262 335.113 169.661 336.476 170.458C337.839 171.244 338.892 172.302 339.637 173.631C340.394 174.961 340.773 176.431 340.773 178.04C340.773 179.521 340.476 180.927 339.883 182.257C339.29 183.574 338.482 184.746 337.46 185.772C336.438 186.785 335.259 187.583 333.921 188.165C332.596 188.735 331.189 189.02 329.699 189.02C327.857 189.02 326.249 188.627 324.873 187.842C323.511 187.044 322.457 185.981 321.712 184.651C320.968 183.308 320.595 181.826 320.595 180.205C320.595 178.723 320.886 177.323 321.466 176.006C322.059 174.689 322.867 173.523 323.889 172.51C324.924 171.497 326.11 170.706 327.448 170.136C328.785 169.554 330.192 169.262 331.668 169.262ZM356.667 169.262C358.51 169.262 360.112 169.661 361.475 170.458C362.838 171.244 363.892 172.301 364.636 173.631C365.393 174.961 365.772 176.431 365.772 178.04C365.772 179.521 365.475 180.927 364.882 182.257C364.289 183.574 363.481 184.746 362.459 185.772C361.437 186.785 360.257 187.583 358.919 188.165C357.594 188.735 356.187 189.02 354.699 189.02C352.856 189.02 351.247 188.628 349.871 187.842C348.509 187.044 347.456 185.98 346.711 184.651C345.967 183.308 345.594 181.826 345.594 180.205C345.594 178.723 345.885 177.323 346.465 176.006C347.058 174.689 347.866 173.523 348.888 172.51C349.923 171.497 351.109 170.706 352.447 170.136C353.784 169.554 355.191 169.262 356.667 169.262ZM463.897 169.072C465.398 169.072 466.762 169.312 467.986 169.793C469.21 170.275 470.231 170.947 471.051 171.808L469.197 174.373C468.793 173.879 468.295 173.454 467.701 173.099C467.108 172.732 466.458 172.447 465.751 172.245C465.045 172.042 464.319 171.941 463.574 171.941C462.477 171.941 461.568 172.194 460.849 172.701C460.13 173.207 459.77 173.917 459.77 174.829C459.77 175.5 460.086 176.032 460.717 176.424C461.348 176.804 462.363 177.204 463.764 177.622C465.732 178.179 467.171 178.843 468.079 179.616C468.988 180.376 469.443 181.358 469.443 182.561C469.443 183.866 469.114 185.006 468.458 185.981C467.802 186.943 466.893 187.69 465.733 188.222C464.584 188.741 463.26 189.001 461.758 189.001C460.219 189.001 458.748 188.748 457.347 188.242C455.959 187.722 454.836 187.006 453.978 186.094L455.89 183.624C456.66 184.422 457.581 185.043 458.654 185.487C459.739 185.917 460.849 186.132 461.985 186.132C463.259 186.132 464.268 185.873 465.013 185.354C465.757 184.822 466.13 184.081 466.13 183.131C466.13 182.485 465.834 181.978 465.241 181.611C464.66 181.243 463.625 180.825 462.136 180.357C460.168 179.787 458.723 179.116 457.802 178.343C456.894 177.571 456.439 176.564 456.439 175.323C456.439 174.107 456.767 173.03 457.423 172.092C458.079 171.142 458.969 170.401 460.092 169.87C461.228 169.338 462.496 169.072 463.897 169.072ZM308.409 161.852C310.933 161.852 312.921 162.391 314.372 163.467C315.823 164.544 316.549 166.051 316.549 167.989C316.549 169.015 316.29 169.971 315.773 170.858C315.255 171.744 314.555 172.504 313.672 173.137C312.789 173.77 311.798 174.221 310.7 174.487C312.025 174.955 313.029 175.709 313.71 176.748C314.391 177.786 314.732 178.945 314.732 180.224C314.732 181.845 314.321 183.277 313.501 184.518C312.681 185.746 311.565 186.709 310.152 187.406C308.751 188.102 307.173 188.451 305.419 188.451H295.122L300.725 161.852H308.409ZM375.878 177.678L385.21 169.831H389.544L381.444 176.937L386.762 188.451H382.711L378.509 179.084L374.913 182.086L373.569 188.451H370.086L375.916 161.092H379.399L375.878 177.678ZM396.054 188.451H392.571L396.508 169.831H399.991L396.054 188.451ZM417.327 169.262C418.716 169.262 419.933 169.559 420.981 170.155C422.028 170.75 422.798 171.567 423.29 172.606C423.782 173.632 423.889 174.797 423.612 176.101L420.999 188.451H417.517L419.902 177.184C420.217 175.728 419.984 174.587 419.201 173.764C418.419 172.928 417.289 172.51 415.813 172.51C414.867 172.51 413.971 172.713 413.125 173.119C412.293 173.524 411.58 174.125 410.987 174.923C410.406 175.709 409.996 176.658 409.756 177.773L407.485 188.451H404.002L407.939 169.831H411.422L410.892 172.435C411.813 171.32 412.835 170.516 413.958 170.022C415.094 169.515 416.217 169.262 417.327 169.262ZM331.327 172.415C329.889 172.416 328.633 172.771 327.561 173.48C326.488 174.177 325.649 175.114 325.043 176.291C324.45 177.457 324.154 178.742 324.154 180.148C324.154 181.313 324.394 182.327 324.873 183.188C325.365 184.036 326.053 184.695 326.936 185.164C327.819 185.632 328.854 185.867 330.04 185.867C331.479 185.867 332.734 185.511 333.807 184.802C334.892 184.093 335.731 183.156 336.324 181.991C336.918 180.813 337.214 179.527 337.214 178.134C337.214 176.956 336.968 175.943 336.476 175.094C335.984 174.233 335.296 173.575 334.413 173.119C333.543 172.65 332.514 172.415 331.327 172.415ZM356.326 172.415C354.888 172.415 353.632 172.771 352.56 173.48C351.487 174.177 350.648 175.114 350.042 176.291C349.449 177.457 349.153 178.742 349.153 180.148C349.153 181.313 349.392 182.327 349.871 183.188C350.363 184.036 351.052 184.695 351.935 185.164C352.818 185.632 353.853 185.867 355.039 185.867C356.478 185.867 357.733 185.511 358.806 184.802C359.891 184.093 360.73 183.156 361.324 181.991C361.917 180.813 362.213 179.527 362.213 178.134C362.213 176.956 361.967 175.943 361.475 175.094C360.983 174.233 360.295 173.575 359.411 173.119C358.541 172.65 357.513 172.415 356.326 172.415ZM439.74 172.359C438.314 172.359 437.07 172.713 436.01 173.422C434.95 174.119 434.124 175.05 433.531 176.215C432.937 177.381 432.641 178.66 432.641 180.053C432.641 181.18 432.881 182.162 433.361 182.998C433.84 183.833 434.508 184.48 435.366 184.936C436.237 185.392 437.259 185.62 438.433 185.62C439.834 185.62 441.07 185.29 442.143 184.631C443.228 183.96 444.074 183.054 444.68 181.915C445.285 180.762 445.588 179.47 445.588 178.04C445.588 176.887 445.348 175.886 444.868 175.038C444.389 174.189 443.708 173.531 442.824 173.062C441.954 172.593 440.926 172.359 439.74 172.359ZM299.286 185.525H305.078C306.996 185.525 308.479 185.063 309.527 184.138C310.574 183.214 311.098 181.896 311.098 180.186C311.098 178.856 310.643 177.855 309.735 177.184C308.826 176.513 307.558 176.177 305.93 176.177H301.274L299.286 185.525ZM301.861 173.366H306.479C307.715 173.366 308.827 173.157 309.811 172.739C310.795 172.321 311.564 171.744 312.119 171.009C312.675 170.275 312.952 169.42 312.952 168.445C312.952 167.242 312.486 166.33 311.552 165.709C310.631 165.076 309.262 164.759 307.445 164.759H303.697L301.861 173.366ZM399.726 161.624C400.357 161.624 400.881 161.821 401.297 162.213C401.726 162.606 401.941 163.112 401.941 163.733C401.941 164.442 401.669 165.05 401.126 165.557C400.584 166.064 399.953 166.317 399.234 166.317C398.615 166.317 398.091 166.121 397.662 165.728C397.233 165.323 397.019 164.822 397.019 164.227C397.019 163.48 397.297 162.86 397.852 162.366C398.407 161.872 399.032 161.624 399.726 161.624ZM20.22 61.3852C52.302 4.58251 143.672 -14.9958 189.485 11.9243C215.407 -5.0779 236.453 -2.50193 246.462 11.7954C247.489 13.0834 245.949 14.3714 244.922 13.0834C231.448 -3.14585 212.969 0.202918 194.49 15.2729C216.434 30.987 225.16 59.453 205.783 101.83C177.679 163.398 116.723 166.618 89.0042 162.11C80.9196 160.822 71.4231 158.374 61.6702 155.669C60.1304 156.056 58.462 156.443 56.9221 156.572C25.7387 161.209 -1.59523 149.359 0.0725395 140.342C2.51077 126.56 26.2512 130.425 68.471 149.23C96.1898 135.577 117.493 97.1922 141.875 61.8999C157.018 40.0033 171.904 24.5472 185.635 14.6293C152.655 -9.71467 82.8437 4.32484 48.3235 45.2846C-12.7602 117.801 57.1789 141.501 96.5755 90.4946C120.316 59.5817 110.819 42.9659 100.553 41.2915C93.4951 40.2612 89.1321 44.2543 89.1321 44.2543C94.7785 42.1935 99.5267 48.7621 95.4202 53.6567C92.8536 56.6192 88.3625 55.5883 86.1809 53.1411C83.1012 49.6633 84.6407 37.8135 99.9114 38.3286C110.948 38.715 126.219 54.5585 102.607 88.434C62.9534 145.365 -12.76 120.12 20.22 61.3852ZM190.383 18.6215C174.855 32.6611 159.328 54.4293 147.008 79.1596C131.095 110.588 103.633 139.955 74.1175 151.805C75.0157 152.192 75.9145 152.578 76.8128 153.093C127.502 176.536 178.192 135.576 196.671 86.6303C208.862 54.4294 204.242 32.1459 190.383 18.6215ZM54.8684 153.738C29.8451 146.654 5.59159 138.539 4.17898 142.145C2.63905 145.88 28.5613 158.375 54.8684 153.738ZM324.247 40.1323C324.247 40.1323 273.943 123.982 268.039 133.386C262.008 142.918 268.296 150.26 277.792 140.471C285.736 132.285 293.851 122.079 298.321 116.374C303.042 108.513 309.422 97.9832 315.097 88.434H328.956C328.956 88.434 307.654 123.983 301.75 133.386C295.719 142.918 302.007 150.26 311.503 140.471C320.743 130.94 330.367 118.574 333.96 113.937C338.58 106.338 344.227 97.0639 349.232 88.434H363.091C363.045 88.5113 341.783 123.993 335.886 133.386C329.983 142.918 336.142 150.26 345.767 140.471C355.263 130.553 365.273 117.673 368.61 113.422C368.851 113.089 369.121 112.891 369.382 112.8C374.459 106.38 383.524 95.3173 388.016 91.6538C397.384 84.1834 413.81 90.8811 411.243 104.92C415.863 100.155 419.969 95.9044 423.049 93.0708C434.984 81.4784 443.325 94.7451 436.01 106.466C428.567 118.316 419.2 108.27 423.82 102.86C427.156 98.7384 432.674 102.216 434.599 97.7075C436.909 92.5554 432.288 86.6311 424.075 94.8745C421.252 97.7083 415.991 103.247 409.831 109.558C407.521 116.256 404.313 125.143 401.362 134.16C398.667 142.403 404.955 151.032 416.119 139.698C420.461 135.289 424.677 130.47 428.265 126.163C432.202 103.797 455.779 88.5632 470.392 88.5629C480.786 88.5629 486.305 98.7381 467.825 112.778C458.201 120.12 448.705 121.923 442.673 122.18C440.748 126.688 439.594 131.583 439.722 136.478C439.979 145.623 452.041 147.04 463.462 138.796C474.498 130.939 485.022 114.71 485.92 113.679C487.203 112.134 488.614 113.165 487.716 114.581C485.918 117.674 472.445 136.994 461.153 143.949C449.229 151.179 427.209 150.205 427.783 130.634C422.729 136.796 417.149 142.98 413.168 145.623C402.645 152.579 387.76 143.691 390.454 129.523C385.065 135.061 380.316 139.827 377.365 142.79C361.709 158.117 354.651 135.061 366.072 126.56C374.413 120.377 380.187 130.037 374.926 134.803C371.461 138.023 367.484 135.963 364.66 140.213C362.479 143.562 367.355 150.002 376.595 140.857C379.547 137.894 385.193 131.969 391.609 125.143C394.432 116.513 396.87 109.687 398.538 104.406C402.773 91.0102 394.176 87.5323 384.808 97.5786C376.338 106.852 370.692 114.582 367.484 118.446C367.317 118.65 367.143 118.796 366.974 118.896C360.386 127.426 346.396 144.721 341.276 147.04C331.908 151.161 318.048 142.789 326.261 127.204C319.331 135.576 310.862 145.365 307.012 147.04C298.046 151.052 284.851 143.471 291.179 128.845C284.566 136.851 276.874 145.453 273.301 147.04C264.45 151.001 251.475 143.662 257.236 129.4C252.488 135.012 246.876 140.771 241.717 143.949C229.398 151.419 206.298 150.131 208.48 128.621C211.046 104.921 235.814 88.5631 250.956 88.5629C261.351 88.5629 266.869 98.7381 248.39 112.778C238.765 120.12 229.269 121.923 223.238 122.18C221.313 126.688 220.158 131.583 220.286 136.478C220.543 145.623 232.606 147.04 244.027 138.796C252.999 132.408 261.631 120.484 265.029 115.696C277.329 95.1447 303.476 51.7621 310.387 40.1323H324.247ZM243.257 113.165C261.608 102.731 260.966 86.5017 247.107 95.2602C240.049 99.7684 230.039 108.785 224.521 119.605C229.141 119.09 235.557 117.673 243.257 113.165ZM462.693 113.165C481.044 102.731 480.402 86.5015 466.542 95.2602C459.484 99.7684 449.474 108.785 443.956 119.605C448.576 119.09 454.993 117.673 462.693 113.165Z" fill="white"/>
</svg>
