<svg width="285" height="132" viewBox="0 0 285 132" fill="none" xmlns="http://www.w3.org/2000/svg">
<path d="M88.9393 127.666V114.704H94.4027C95.2146 114.704 95.9164 114.849 96.508 115.139C97.0995 115.417 97.5519 115.823 97.8651 116.357C98.1783 116.879 98.3349 117.499 98.3349 118.218C98.3349 118.845 98.1725 119.419 97.8477 119.941C97.5345 120.451 97.0415 120.857 96.3688 121.159V120.289C96.9603 120.521 97.4417 120.817 97.8129 121.176C98.1841 121.524 98.4509 121.919 98.6132 122.359C98.7872 122.8 98.8742 123.264 98.8742 123.751C98.8742 124.969 98.474 125.926 97.6737 126.622C96.8849 127.318 95.8004 127.666 94.4201 127.666H88.9393ZM90.9924 125.839H94.5767C95.261 125.839 95.8062 125.654 96.2122 125.282C96.6181 124.9 96.8211 124.395 96.8211 123.769C96.8211 123.131 96.6181 122.626 96.2122 122.255C95.8062 121.872 95.261 121.681 94.5767 121.681H90.9924V125.839ZM90.9924 119.871H94.4549C95.0116 119.871 95.4582 119.715 95.7946 119.401C96.131 119.077 96.2992 118.653 96.2992 118.131C96.2992 117.609 96.131 117.203 95.7946 116.913C95.4582 116.623 95.0116 116.478 94.4549 116.478H90.9924V119.871ZM110.416 127.875C109.477 127.875 108.601 127.707 107.789 127.37C106.989 127.034 106.281 126.564 105.667 125.961C105.063 125.358 104.588 124.65 104.24 123.838C103.903 123.026 103.735 122.139 103.735 121.176C103.735 120.213 103.903 119.326 104.24 118.514C104.588 117.691 105.063 116.983 105.667 116.391C106.27 115.788 106.977 115.324 107.789 114.999C108.601 114.663 109.477 114.495 110.416 114.495C111.368 114.495 112.243 114.663 113.044 114.999C113.856 115.324 114.563 115.788 115.166 116.391C115.781 116.995 116.257 117.702 116.593 118.514C116.93 119.326 117.098 120.213 117.098 121.176C117.098 122.139 116.924 123.026 116.576 123.838C116.239 124.65 115.77 125.358 115.166 125.961C114.563 126.564 113.856 127.034 113.044 127.37C112.232 127.707 111.356 127.875 110.416 127.875ZM110.416 125.996C111.089 125.996 111.704 125.874 112.261 125.63C112.829 125.387 113.322 125.05 113.74 124.621C114.157 124.18 114.482 123.67 114.714 123.09C114.946 122.498 115.062 121.861 115.062 121.176C115.062 120.492 114.946 119.86 114.714 119.28C114.482 118.7 114.157 118.189 113.74 117.749C113.322 117.308 112.829 116.966 112.261 116.722C111.704 116.478 111.089 116.357 110.416 116.357C109.744 116.357 109.123 116.478 108.555 116.722C107.998 116.966 107.511 117.308 107.093 117.749C106.676 118.189 106.351 118.7 106.119 119.28C105.899 119.86 105.788 120.492 105.788 121.176C105.788 121.861 105.899 122.498 106.119 123.09C106.351 123.67 106.676 124.18 107.093 124.621C107.511 125.05 108.004 125.387 108.572 125.63C109.141 125.874 109.755 125.996 110.416 125.996ZM128.824 127.875C127.884 127.875 127.008 127.707 126.196 127.37C125.396 127.034 124.688 126.564 124.074 125.961C123.47 125.358 122.995 124.65 122.647 123.838C122.31 123.026 122.142 122.139 122.142 121.176C122.142 120.213 122.31 119.326 122.647 118.514C122.995 117.691 123.47 116.983 124.074 116.391C124.677 115.788 125.384 115.324 126.196 114.999C127.008 114.663 127.884 114.495 128.824 114.495C129.775 114.495 130.65 114.663 131.451 114.999C132.263 115.324 132.97 115.788 133.573 116.391C134.188 116.995 134.664 117.702 135 118.514C135.337 119.326 135.505 120.213 135.505 121.176C135.505 122.139 135.331 123.026 134.983 123.838C134.646 124.65 134.177 125.358 133.573 125.961C132.97 126.564 132.263 127.034 131.451 127.37C130.639 127.707 129.763 127.875 128.824 127.875ZM128.824 125.996C129.496 125.996 130.111 125.874 130.668 125.63C131.236 125.387 131.729 125.05 132.147 124.621C132.564 124.18 132.889 123.67 133.121 123.09C133.353 122.498 133.469 121.861 133.469 121.176C133.469 120.492 133.353 119.86 133.121 119.28C132.889 118.7 132.564 118.189 132.147 117.749C131.729 117.308 131.236 116.966 130.668 116.722C130.111 116.478 129.496 116.357 128.824 116.357C128.151 116.357 127.53 116.478 126.962 116.722C126.405 116.966 125.918 117.308 125.5 117.749C125.083 118.189 124.758 118.7 124.526 119.28C124.306 119.86 124.195 120.492 124.195 121.176C124.195 121.861 124.306 122.498 124.526 123.09C124.758 123.67 125.083 124.18 125.5 124.621C125.918 125.05 126.411 125.387 126.979 125.63C127.548 125.874 128.162 125.996 128.824 125.996ZM140.932 127.666V114.704H142.985V121.733L142.446 121.524L148.309 114.704H150.867L145.682 120.776L145.786 119.314L151.076 127.666H148.657L144.864 121.733L142.985 123.925V127.666H140.932ZM155.737 127.666V114.704H157.79V127.666H155.737ZM163.609 127.666V114.704H165.262L172.535 124.743L171.752 124.865V114.704H173.788V127.666H172.135L164.914 117.557L165.662 117.418V127.666H163.609ZM185.676 127.875C184.76 127.875 183.907 127.707 183.118 127.37C182.341 127.034 181.657 126.57 181.065 125.978C180.485 125.375 180.033 124.668 179.708 123.856C179.383 123.044 179.221 122.15 179.221 121.176C179.221 120.213 179.377 119.326 179.691 118.514C180.015 117.691 180.468 116.983 181.048 116.391C181.628 115.788 182.306 115.324 183.083 114.999C183.861 114.663 184.713 114.495 185.641 114.495C186.557 114.495 187.375 114.651 188.094 114.965C188.825 115.278 189.44 115.69 189.939 116.2C190.437 116.699 190.797 117.244 191.017 117.836L189.191 118.723C188.924 118.015 188.483 117.447 187.868 117.018C187.253 116.577 186.511 116.357 185.641 116.357C184.783 116.357 184.023 116.56 183.362 116.966C182.701 117.372 182.184 117.934 181.813 118.653C181.454 119.372 181.274 120.213 181.274 121.176C181.274 122.139 181.46 122.986 181.831 123.716C182.213 124.436 182.735 124.998 183.397 125.404C184.058 125.799 184.818 125.996 185.676 125.996C186.395 125.996 187.05 125.851 187.642 125.561C188.245 125.259 188.727 124.842 189.086 124.308C189.446 123.763 189.626 123.131 189.626 122.411V121.524L190.548 122.359H185.641V120.619H191.661V121.837C191.661 122.788 191.499 123.641 191.174 124.395C190.849 125.137 190.408 125.77 189.852 126.291C189.295 126.813 188.657 127.208 187.938 127.475C187.219 127.741 186.465 127.875 185.676 127.875ZM201.43 127.875C200.618 127.875 199.864 127.724 199.169 127.422C198.473 127.109 197.881 126.686 197.394 126.152C196.907 125.619 196.547 125.004 196.315 124.308L198.055 123.577C198.368 124.378 198.826 124.992 199.429 125.422C200.033 125.851 200.729 126.065 201.517 126.065C201.981 126.065 202.387 125.996 202.735 125.857C203.083 125.706 203.35 125.497 203.536 125.23C203.733 124.963 203.831 124.656 203.831 124.308C203.831 123.832 203.698 123.455 203.431 123.177C203.164 122.899 202.77 122.678 202.248 122.516L199.812 121.75C198.838 121.449 198.096 120.991 197.585 120.376C197.075 119.749 196.82 119.019 196.82 118.184C196.82 117.453 196.999 116.815 197.359 116.27C197.719 115.713 198.212 115.278 198.838 114.965C199.476 114.651 200.201 114.495 201.013 114.495C201.79 114.495 202.498 114.634 203.136 114.912C203.773 115.179 204.319 115.55 204.771 116.026C205.235 116.502 205.571 117.053 205.78 117.679L204.075 118.427C203.82 117.743 203.42 117.215 202.875 116.844C202.341 116.473 201.72 116.287 201.013 116.287C200.584 116.287 200.207 116.362 199.882 116.513C199.557 116.652 199.302 116.861 199.116 117.14C198.942 117.406 198.855 117.72 198.855 118.079C198.855 118.497 198.989 118.868 199.256 119.193C199.522 119.517 199.928 119.761 200.473 119.923L202.735 120.637C203.768 120.95 204.545 121.402 205.067 121.994C205.589 122.574 205.85 123.299 205.85 124.169C205.85 124.888 205.658 125.526 205.276 126.083C204.904 126.639 204.388 127.08 203.727 127.405C203.066 127.718 202.3 127.875 201.43 127.875Z" fill="white"/>
<path d="M126.007 21.1399C126.138 21.7924 126.007 22.5753 125.616 23.0973C125.224 23.7498 124.442 23.8803 123.789 22.9668C122.876 21.9229 122.745 20.357 121.962 19.1825C121.44 18.2691 120.527 17.7471 119.483 17.4861C118.7 17.3556 118.047 17.4861 117.264 17.4861C114.524 17.6166 111.131 18.6605 108.26 19.9655C108.782 20.8789 109.304 21.7924 109.696 22.7058C114.916 33.6673 114.394 47.2386 110.609 58.3305C101.736 83.9072 76.42 106.613 43.7967 105.178C41.3173 105.047 38.838 104.786 36.3586 104.395C36.3586 104.395 27.2241 102.959 22.9178 100.61C22.9178 100.61 14.6967 103.22 11.3039 103.09C9.86845 102.959 8.43302 102.568 7.25858 101.524C5.95365 100.349 5.95365 98.2614 7.91105 97.2175C9.86845 96.1735 12.2173 96.043 14.0442 96.304C15.3492 96.4345 16.6541 96.826 17.8285 97.087C18.6115 97.348 21.6128 98.5224 23.0483 99.1749C29.5729 97.8699 34.5317 95.5211 36.6196 94.2161C47.9725 88.083 56.7155 76.991 63.6317 66.1601C74.2016 49.3265 86.8595 30.144 104.737 20.357C105.129 20.096 105.52 19.835 105.911 19.7045C105.129 18.2691 104.085 16.8336 102.78 15.5287C93.9061 5.8722 80.8568 2.74036 72.6357 1.82691C70.1563 1.69641 65.0671 1.56592 64.6756 1.56592C46.5371 1.56592 28.79 9.26503 16.7846 22.3144C6.47562 33.4063 -2.52841 50.7619 3.34378 65.7686C5.82316 72.2933 11.9563 76.8605 19.264 77.774C18.742 75.4251 18.742 72.4238 18.742 72.0323C18.6115 68.3785 19.003 64.9856 19.7859 61.4623C20.4384 58.3305 21.4823 55.3291 22.6568 52.4583C25.1362 46.5861 28.79 40.8444 33.3572 36.4076C36.7501 33.2758 40.2734 30.5354 44.5797 28.578C48.4945 26.7511 53.0617 25.8377 57.368 26.6206C61.5438 27.4036 64.9366 30.2744 66.2415 34.4502C68.8514 43.5848 60.6303 55.8511 60.2388 56.3731C46.2761 76.4691 28.6595 79.0789 22.7873 79.3399C22.7873 79.3399 22.7873 79.3399 22.6568 79.3399C22.0043 79.4704 21.4823 79.4704 21.2214 79.4704C22.1348 83.7767 23.9617 87.9525 26.4411 92.1282C25.9191 92.2587 25.3971 92.3892 24.8752 92.3892C22.2653 88.2135 20.5689 83.7767 19.6554 79.3399C11.5649 78.5569 4.64872 73.5982 1.90836 66.4211C-4.09433 50.6314 5.0402 32.7538 15.7406 21.2704C28.007 7.8296 46.2761 0 64.6756 0C65.4586 0 70.9393 0.260991 72.8967 0.391483C84.3801 1.69641 95.8635 5.8722 104.085 14.4848C105.39 15.7897 106.564 17.3556 107.608 18.9215C109.043 18.2691 110.479 17.7471 112.045 17.2251C113.611 16.9641 115.046 16.5726 116.612 16.5726C118.7 16.3117 120.657 16.5726 122.223 17.2251C123.92 17.8776 125.746 19.313 126.007 21.1399ZM21.2214 61.8538C20.4384 65.3771 20.0469 69.2919 20.3079 73.2067C20.3079 74.7726 20.5689 76.3386 20.8299 77.9045C21.0909 77.9045 21.7433 77.9045 22.6568 77.9045C39.8819 75.8166 52.6702 57.678 56.0631 52.0668C58.5424 48.2825 60.3693 43.9762 61.2828 40.1919C62.9792 33.2758 61.6743 29.622 58.2814 28.4475C57.2375 28.0561 46.5371 24.9242 32.5743 39.2785C32.4438 39.409 27.6155 44.7592 23.9617 53.2413C22.9178 55.8511 21.8738 58.722 21.2214 61.8538ZM109.435 34.7112C109.565 29.622 108.782 25.0547 106.564 20.8789C106.172 21.1399 105.781 21.4009 105.39 21.6619C93.3841 30.5354 86.3375 43.3238 78.3774 55.5901C78.1164 55.9816 77.8554 56.2426 77.7249 56.6341C66.7635 75.1641 51.8873 93.8247 25.7886 99.8273C25.7886 99.8273 25.2667 99.9578 24.7447 100.088C28.1375 101.915 37.533 103.612 42.6223 103.612C54.7581 103.612 68.8514 99.0444 79.9433 90.6928C92.4707 81.2973 109.174 56.3731 109.435 34.7112Z" fill="#EFEBEA"/>
<path d="M141.135 79.8619C141.396 80.1229 141.396 80.3838 141.135 80.7753C133.436 89.6489 126.651 95.9125 119.996 99.5664C117.125 101.263 113.601 102.046 110.861 102.046C107.729 102.046 104.075 101.002 102.901 97.8699C101.074 93.0417 104.858 85.6036 107.338 82.0803C107.729 81.5583 108.121 81.0363 108.382 80.6448C108.251 80.6448 108.251 80.7753 108.121 80.7753C107.86 80.7753 107.729 80.6448 107.729 80.5143C107.338 80.1229 107.729 79.7314 107.99 79.4704C114.515 72.9457 119.996 69.0309 126.912 65.8991C128.739 64.9856 131.609 63.9417 134.219 63.9417C136.046 63.9417 138.134 64.4637 138.787 66.4211C139.178 67.5955 139.178 69.1614 138.395 70.4664C137.351 72.6847 135.655 74.7726 133.306 76.73C125.868 82.8632 117.908 85.0816 112.427 85.7341C110.861 88.8659 109.817 91.8673 109.556 94.3466C109.426 96.043 109.687 97.4785 110.47 98.3919C112.557 100.61 117.386 99.5664 119.865 98.2614C127.434 93.9552 133.828 87.1695 140.353 79.9924C140.483 79.7314 140.744 79.7314 140.744 79.7314C141.005 79.7314 141.005 79.7314 141.135 79.8619ZM123.388 71.1188C119.343 75.2946 115.82 79.7314 113.34 84.0377C116.603 83.1242 120.126 81.1668 121.562 80.1229C126.781 76.4691 130.435 72.8152 132.131 69.2919C132.653 68.509 132.914 67.726 132.914 67.204C133.175 65.6381 131.87 65.5076 130.696 65.8991C128.478 66.6821 126.129 68.3785 123.388 71.1188Z" fill="#EFEBEA"/>
<path d="M161.331 79.7314C161.592 79.7314 161.723 79.8619 161.723 79.8619C161.984 80.1229 161.984 80.5143 161.723 80.7753C160.418 82.3412 153.371 89.7794 152.98 90.1708C152.066 91.2148 150.761 92.5197 149.587 93.6942C143.845 99.1749 139.278 101.915 136.016 102.046C136.016 102.046 132.753 102.176 131.97 99.9578C130.796 96.6955 134.319 91.4758 136.407 88.3439C136.668 87.9525 143.976 77.774 144.237 77.3825C142.671 79.2094 140.974 81.1668 140.974 81.1668L140.713 81.2973C140.452 81.4278 140.191 81.1668 140.191 81.1668C139.8 80.7753 140.061 80.5143 140.452 80.1229C141.627 78.8179 153.11 65.2466 153.632 64.4637V64.5942C153.893 64.0722 176.73 34.8417 178.557 32.7538C180.905 29.883 185.081 29.4915 187.43 29.4915C187.822 29.4915 188.996 29.4915 188.996 29.4915C188.996 29.4915 147.108 83.6462 145.672 85.4731C143.193 88.6049 140.713 92.3892 139.017 96.043C138.756 96.6955 138.234 97.7395 138.495 98.5224C138.626 99.3054 139.8 99.1749 139.8 99.1749C141.496 98.9139 144.628 96.6955 148.674 92.7807C149.848 91.7368 151.022 90.5623 152.197 89.3879C155.459 85.8646 159.113 82.0803 160.94 79.9924C161.07 79.8619 161.331 79.7314 161.331 79.7314Z" fill="#EFEBEA"/>
<path d="M208.873 79.8619C209.134 80.1229 209.134 80.5143 208.873 80.7753C207.698 82.3412 200.521 89.7794 200.26 90.1708C195.04 95.5211 187.863 102.046 183.296 102.046C182.644 102.046 182.122 102.046 181.469 101.915C180.425 101.654 179.642 101.002 179.251 100.088C178.207 98.0004 178.598 94.8686 179.512 92.3892C178.729 93.0417 176.249 95.3906 176.249 95.3906C171.682 99.3054 167.898 101.524 164.896 102.046C164.505 102.046 164.114 102.046 163.722 102.046C161.765 102.046 160.199 101.393 159.024 100.088C156.675 97.609 158.111 93.5637 159.938 89.9099C162.417 84.9511 172.987 71.2493 175.466 68.1175C172.857 69.6834 170.247 71.9018 167.506 74.6422C166.723 75.5556 164.505 78.035 163.07 79.6009C162.287 80.3839 161.765 81.0363 161.634 81.1668C161.373 81.4278 160.982 81.4278 160.721 81.1668C160.59 81.1668 160.59 81.0363 160.59 80.9058C160.59 80.7753 160.59 80.6448 160.721 80.3839C161.504 79.6009 165.679 75.0336 166.854 73.8592C168.811 71.9018 171.16 69.8139 174.161 67.5955C178.859 64.2027 182.252 63.9417 184.731 63.9417C185.123 63.9417 186.297 63.8112 186.297 63.9417C183.818 66.943 172.204 83.1242 171.03 84.6901C169.333 87.1695 168.028 89.1269 166.723 91.3453C165.679 93.1722 164.244 96.4345 165.418 98.1309C166.071 99.0444 167.376 99.0444 167.376 99.0444C171.291 99.0444 179.12 91.4758 180.686 89.3879C180.947 88.8659 182.774 86.6475 183.427 85.7341C183.949 85.0816 191.387 75.4251 196.345 69.2919C201.304 63.5502 204.827 63.9417 207.176 63.9417C207.698 63.9417 208.742 63.9417 208.742 63.9417C208.742 63.9417 193.475 82.8632 192.17 84.6901C190.473 87.1695 188.777 89.7794 187.472 91.9977C186.819 93.3027 185.123 97.087 185.906 98.5224C186.036 98.9139 186.428 99.0444 186.95 99.0444C188.907 99.0444 193.475 95.3906 199.347 89.3879C202.74 85.8646 206.263 82.0803 208.09 79.9924C208.351 79.8619 208.481 79.7314 208.612 79.7314C208.742 79.7314 208.873 79.8619 208.873 79.8619Z" fill="#EFEBEA"/>
<path d="M251.717 79.3399C251.848 79.3399 251.978 79.4704 251.978 79.4704C252.239 79.7314 252.239 80.1229 251.978 80.3839C250.673 81.8193 242.974 89.3879 242.713 89.7794C239.19 93.1722 234.362 97.8699 229.403 100.349C227.968 101.002 225.358 102.046 222.878 102.046C220.529 102.046 218.833 101.132 217.92 99.3054C216.354 96.4345 218.572 91.4758 219.746 89.1269C218.703 90.3013 217.267 91.9977 217.267 91.9977C216.876 92.5197 208.133 102.959 202.391 102.959C200.042 102.959 198.737 101.654 198.737 99.8273C198.868 96.826 202.521 92.7807 205.914 93.1722C206.958 93.3027 207.611 93.5637 207.872 94.0856C208.394 95.1296 207.48 96.565 206.697 97.7395C205.914 99.0444 206.175 99.1749 206.175 99.1749C207.872 99.4359 210.742 97.348 214.657 93.1722C214.657 93.1722 218.311 89.1269 221.573 84.9511C221.965 84.4291 224.575 80.5143 224.575 80.5143C226.793 77.3825 228.359 74.7726 229.403 72.2933C230.708 69.1614 230.577 67.465 229.142 66.5516C228.881 66.4211 228.359 66.2906 227.837 66.2906C225.88 66.2906 222.748 67.8565 220.79 69.2919C218.963 70.7274 217.659 71.9018 216.484 73.0762C216.093 73.4677 215.832 73.7287 215.44 74.1202C214.918 74.5117 209.438 80.1229 209.046 80.6448C208.785 80.9058 208.655 81.0363 208.394 81.0363C208.263 81.0363 208.002 81.0363 207.872 80.7753C207.611 80.5143 208.002 80.1229 208.133 79.9924C209.177 78.8179 213.483 74.5117 214.657 73.3372C221.573 66.5516 226.532 63.5502 230.447 63.9417C233.187 64.2027 234.884 65.1161 235.797 66.8126C237.102 69.2919 235.797 72.9457 235.014 74.9031C237.494 71.7713 244.279 63.9417 248.846 63.9417C250.804 63.9417 252.239 64.9856 252.239 66.943C252.109 69.9444 248.585 73.9897 245.323 73.7287C244.41 73.5982 243.757 73.3372 243.496 72.6848C242.974 71.7713 243.888 70.3359 244.54 69.1614C245.323 67.726 245.062 67.726 244.932 67.726C243.366 67.726 239.581 71.5103 238.407 72.8152C236.189 75.2946 234.884 76.73 231.752 81.0363C229.142 84.2986 225.88 90.0404 224.836 92.5197C223.792 94.9991 223.531 96.826 224.183 97.8699C224.705 98.6529 225.619 99.0444 227.054 99.0444C227.837 99.0444 228.881 98.7834 230.055 98.2614C232.535 97.2175 236.841 93.8247 241.8 88.9964C245.323 85.4731 249.238 81.6888 251.195 79.6009C251.326 79.4704 251.587 79.3399 251.717 79.3399Z" fill="#EFEBEA"/>
<path d="M284.627 79.8619C284.888 80.1229 284.888 80.3838 284.627 80.7753C276.928 89.6489 270.142 95.9125 263.487 99.5664C260.616 101.263 257.093 102.046 254.353 102.046C251.221 102.046 247.567 101.002 246.393 97.8699C244.566 93.0417 248.35 85.6036 250.829 82.0803C251.221 81.5583 251.612 81.0363 251.873 80.6448C251.743 80.6448 251.743 80.7753 251.612 80.7753C251.351 80.7753 251.221 80.6448 251.221 80.5143C250.829 80.1229 251.221 79.7314 251.482 79.4704C258.006 72.9457 263.487 69.0309 270.403 65.8991C272.23 64.9856 275.101 63.9417 277.711 63.9417C279.538 63.9417 281.626 64.4637 282.278 66.4211C282.67 67.5955 282.67 69.1614 281.887 70.4664C280.843 72.6847 279.146 74.7726 276.798 76.73C269.359 82.8632 261.399 85.0816 255.919 85.7341C254.353 88.8659 253.309 91.8673 253.048 94.3466C252.917 96.043 253.178 97.4785 253.961 98.3919C256.049 100.61 260.877 99.5664 263.357 98.2614C270.925 93.9552 277.319 87.1695 283.844 79.9924C283.975 79.7314 284.236 79.7314 284.236 79.7314C284.497 79.7314 284.497 79.7314 284.627 79.8619ZM266.88 71.1188C262.835 75.2946 259.311 79.7314 256.832 84.0377C260.094 83.1242 263.618 81.1668 265.053 80.1229C270.273 76.4691 273.927 72.8152 275.623 69.2919C276.145 68.509 276.406 67.726 276.406 67.204C276.667 65.6381 275.362 65.5076 274.188 65.8991C271.969 66.6821 269.62 68.3785 266.88 71.1188Z" fill="#EFEBEA"/>
</svg>
