<svg width="200" height="200" viewBox="0 0 200 200" fill="none" xmlns="http://www.w3.org/2000/svg">
<path d="M158.333 25H41.6667C32.4619 25 25 32.4619 25 41.6667V158.333C25 167.538 32.4619 175 41.6667 175H158.333C167.538 175 175 167.538 175 158.333V41.6667C175 32.4619 167.538 25 158.333 25Z" stroke="#A48A56" stroke-width="2" stroke-linecap="round" stroke-linejoin="round"/>
<path d="M74.9987 91.6654C84.2034 91.6654 91.6654 84.2034 91.6654 74.9987C91.6654 65.794 84.2034 58.332 74.9987 58.332C65.794 58.332 58.332 65.794 58.332 74.9987C58.332 84.2034 65.794 91.6654 74.9987 91.6654Z" stroke="#A48A56" stroke-width="2" stroke-linecap="round" stroke-linejoin="round"/>
<path d="M175 124.999L149.283 99.2821C146.158 96.1576 141.919 94.4023 137.5 94.4023C133.081 94.4023 128.842 96.1576 125.717 99.2821L50 174.999" stroke="#A48A56" stroke-width="2" stroke-linecap="round" stroke-linejoin="round"/>
</svg>
