<svg width="420" height="860" viewBox="0 0 420 860" fill="none" xmlns="http://www.w3.org/2000/svg">
  <rect width="420" height="860" rx="32" fill="#F6EFE6"/>
  <rect x="34" y="28" width="352" height="804" rx="34" fill="#143642"/>
  <rect x="58" y="68" width="304" height="182" rx="24" fill="#F4C95D"/>
  <rect x="58" y="272" width="304" height="220" rx="24" fill="#F8F3EC"/>
  <rect x="58" y="514" width="304" height="256" rx="24" fill="#F8F3EC"/>
  <rect x="82" y="96" width="132" height="14" rx="7" fill="#143642" fill-opacity="0.22"/>
  <rect x="82" y="130" width="218" height="34" rx="10" fill="#143642" fill-opacity="0.72"/>
  <rect x="82" y="182" width="138" height="36" rx="18" fill="#143642"/>
  <rect x="82" y="302" width="204" height="14" rx="7" fill="#143642" fill-opacity="0.7"/>
  <rect x="82" y="338" width="256" height="56" rx="16" fill="#F6EFE6"/>
  <rect x="82" y="410" width="256" height="56" rx="16" fill="#F6EFE6"/>
  <rect x="82" y="544" width="256" height="64" rx="16" fill="#F6EFE6"/>
  <rect x="82" y="626" width="256" height="64" rx="16" fill="#F6EFE6"/>
  <rect x="82" y="728" width="146" height="28" rx="14" fill="#F4C95D"/>
  <text x="58" y="48" fill="#F8F3EC" font-family="Arial, sans-serif" font-size="18">Mobile mockup</text>
</svg>