<svg width="1200" height="780" viewBox="0 0 1200 780" fill="none" xmlns="http://www.w3.org/2000/svg">
  <rect width="1200" height="780" rx="32" fill="#F6EFE6"/>
  <rect x="36" y="36" width="1128" height="708" rx="24" fill="#143642"/>
  <rect x="82" y="88" width="430" height="236" rx="24" fill="#F4C95D"/>
  <rect x="82" y="350" width="430" height="314" rx="24" fill="#F8F3EC"/>
  <rect x="544" y="88" width="574" height="142" rx="24" fill="#1F4E5F"/>
  <rect x="544" y="252" width="574" height="412" rx="24" fill="#F8F3EC"/>
  <rect x="108" y="116" width="214" height="18" rx="9" fill="#143642" fill-opacity="0.22"/>
  <rect x="108" y="154" width="340" height="44" rx="12" fill="#143642" fill-opacity="0.72"/>
  <rect x="108" y="212" width="274" height="16" rx="8" fill="#143642" fill-opacity="0.22"/>
  <rect x="108" y="252" width="158" height="42" rx="21" fill="#143642"/>
  <rect x="108" y="384" width="168" height="16" rx="8" fill="#143642" fill-opacity="0.7"/>
  <rect x="108" y="430" width="378" height="72" rx="18" fill="#F6EFE6"/>
  <rect x="108" y="522" width="378" height="72" rx="18" fill="#F6EFE6"/>
  <rect x="108" y="614" width="252" height="20" rx="10" fill="#143642" fill-opacity="0.14"/>
  <rect x="572" y="118" width="226" height="18" rx="9" fill="#F8F3EC" fill-opacity="0.3"/>
  <rect x="572" y="154" width="510" height="24" rx="12" fill="#F8F3EC"/>
  <rect x="572" y="286" width="518" height="80" rx="20" fill="#F6EFE6"/>
  <rect x="572" y="386" width="518" height="80" rx="20" fill="#F6EFE6"/>
  <rect x="572" y="486" width="518" height="80" rx="20" fill="#F6EFE6"/>
  <rect x="572" y="606" width="180" height="32" rx="16" fill="#F4C95D"/>
  <text x="82" y="62" fill="#F8F3EC" font-family="Arial, sans-serif" font-size="20">Desktop booking dashboard mockup</text>
  <text x="112" y="281" fill="#F8F3EC" font-family="Arial, sans-serif" font-size="18">Hero and authentication panel</text>
  <text x="108" y="649" fill="#143642" font-family="Arial, sans-serif" font-size="18">Signature Stay Word explainer</text>
  <text x="574" y="638" fill="#143642" font-family="Arial, sans-serif" font-size="18">Reservation activity feed</text>
</svg>