<svg width="285" height="128" viewBox="0 0 285 128" fill="none" xmlns="http://www.w3.org/2000/svg">
<g clip-path="url(#clip0_636_1006)">
<path d="M110.416 114.495C111.367 114.495 112.244 114.663 113.044 114.999C113.856 115.324 114.563 115.788 115.166 116.392C115.781 116.995 116.256 117.702 116.593 118.514C116.929 119.326 117.098 120.213 117.098 121.176C117.098 122.138 116.924 123.026 116.576 123.838C116.24 124.65 115.769 125.358 115.166 125.961C114.563 126.564 113.856 127.034 113.044 127.37C112.232 127.706 111.356 127.875 110.416 127.875C109.477 127.875 108.601 127.706 107.789 127.37C106.989 127.034 106.282 126.564 105.667 125.961C105.064 125.358 104.588 124.65 104.24 123.838C103.904 123.026 103.735 122.138 103.735 121.176C103.735 120.213 103.904 119.326 104.24 118.514C104.588 117.69 105.064 116.983 105.667 116.392C106.27 115.788 106.977 115.324 107.789 114.999C108.601 114.663 109.477 114.495 110.416 114.495ZM128.823 114.495C129.774 114.495 130.651 114.663 131.451 114.999C132.263 115.324 132.97 115.788 133.573 116.392C134.188 116.995 134.664 117.702 135 118.514C135.336 119.326 135.505 120.213 135.505 121.176C135.505 122.138 135.33 123.026 134.983 123.838C134.646 124.65 134.177 125.358 133.573 125.961C132.97 126.564 132.263 127.034 131.451 127.37C130.639 127.706 129.763 127.875 128.823 127.875C127.884 127.875 127.008 127.706 126.196 127.37C125.396 127.034 124.688 126.564 124.073 125.961C123.47 125.358 122.995 124.65 122.647 123.838C122.31 123.026 122.143 122.138 122.143 121.176C122.143 120.213 122.31 119.326 122.647 118.514C122.994 117.69 123.47 116.983 124.073 116.392C124.676 115.788 125.384 115.324 126.196 114.999C127.008 114.663 127.884 114.495 128.823 114.495ZM185.641 114.495C186.557 114.495 187.376 114.652 188.095 114.965C188.825 115.278 189.44 115.69 189.939 116.2C190.437 116.699 190.797 117.244 191.018 117.836L189.191 118.723C188.924 118.015 188.483 117.447 187.868 117.018C187.254 116.577 186.511 116.356 185.641 116.356C184.783 116.357 184.023 116.56 183.362 116.966C182.701 117.372 182.185 117.934 181.814 118.653C181.454 119.372 181.275 120.213 181.275 121.176C181.275 122.139 181.46 122.986 181.831 123.717C182.214 124.436 182.736 124.998 183.397 125.404C184.058 125.799 184.818 125.996 185.676 125.996C186.395 125.996 187.05 125.85 187.642 125.561C188.245 125.259 188.726 124.841 189.086 124.308C189.446 123.762 189.626 123.13 189.626 122.411V122.359H185.641V120.619H191.661V121.837C191.661 122.788 191.499 123.641 191.174 124.395C190.849 125.137 190.408 125.769 189.852 126.291C189.295 126.813 188.657 127.208 187.938 127.475C187.218 127.741 186.465 127.875 185.676 127.875C184.76 127.875 183.907 127.706 183.118 127.37C182.341 127.034 181.657 126.57 181.066 125.979C180.486 125.375 180.033 124.667 179.708 123.855C179.383 123.044 179.221 122.15 179.221 121.176C179.221 120.213 179.377 119.326 179.691 118.514C180.015 117.69 180.468 116.983 181.048 116.392C181.628 115.788 182.306 115.324 183.083 114.999C183.86 114.663 184.713 114.495 185.641 114.495ZM201.013 114.495C201.79 114.495 202.498 114.634 203.136 114.912C203.774 115.179 204.319 115.551 204.772 116.026C205.235 116.502 205.572 117.053 205.78 117.679L204.075 118.427C203.82 117.743 203.42 117.215 202.875 116.844C202.342 116.473 201.72 116.287 201.013 116.287C200.584 116.287 200.207 116.363 199.882 116.514C199.557 116.653 199.302 116.861 199.116 117.14C198.942 117.406 198.856 117.72 198.856 118.079C198.856 118.497 198.989 118.868 199.256 119.192C199.523 119.517 199.929 119.761 200.474 119.924L202.735 120.637C203.768 120.95 204.545 121.403 205.066 121.994C205.588 122.574 205.85 123.299 205.85 124.169C205.85 124.888 205.658 125.526 205.275 126.083C204.904 126.64 204.389 127.081 203.728 127.405C203.067 127.718 202.301 127.875 201.431 127.875C200.619 127.875 199.865 127.724 199.169 127.423C198.473 127.11 197.881 126.686 197.394 126.152C196.907 125.619 196.547 125.004 196.316 124.308L198.055 123.577C198.368 124.378 198.827 124.993 199.43 125.422C200.033 125.851 200.729 126.065 201.518 126.065C201.982 126.065 202.388 125.996 202.735 125.856C203.083 125.706 203.351 125.497 203.536 125.23C203.733 124.964 203.831 124.656 203.831 124.308C203.831 123.832 203.698 123.455 203.432 123.177C203.165 122.898 202.77 122.678 202.248 122.516L199.813 121.75C198.838 121.448 198.095 120.991 197.585 120.376C197.075 119.75 196.819 119.019 196.819 118.184C196.819 117.453 197 116.815 197.359 116.27C197.719 115.713 198.212 115.278 198.838 114.965C199.476 114.652 200.201 114.495 201.013 114.495ZM94.4024 114.704C95.2143 114.704 95.9164 114.849 96.5079 115.139C97.0995 115.417 97.5521 115.823 97.8653 116.356C98.1785 116.878 98.335 117.5 98.335 118.219C98.335 118.845 98.1723 119.419 97.8477 119.94C97.6764 120.22 97.4499 120.466 97.171 120.683C97.4126 120.831 97.6264 120.995 97.8126 121.176C98.1838 121.524 98.451 121.919 98.6134 122.359C98.7873 122.8 98.8741 123.264 98.8741 123.751C98.8741 124.969 98.4742 125.926 97.6739 126.622C96.8852 127.318 95.8003 127.666 94.42 127.666H88.9395V114.704H94.4024ZM142.985 120.896L148.31 114.704H150.867L146.273 120.083L151.076 127.666H148.657L144.864 121.733L142.985 123.925V127.666H140.932V114.704H142.985V120.896ZM157.79 127.666H155.737V114.704H157.79V127.666ZM171.752 123.661V114.704H173.788V127.666H172.135L165.662 118.604V127.666H163.609V114.704H165.263L171.752 123.661ZM110.416 116.356C109.744 116.357 109.123 116.478 108.555 116.722C107.998 116.965 107.511 117.308 107.094 117.748C106.676 118.189 106.351 118.699 106.119 119.279C105.899 119.859 105.788 120.492 105.788 121.176C105.788 121.86 105.899 122.498 106.119 123.09C106.351 123.67 106.676 124.18 107.094 124.621C107.511 125.05 108.004 125.386 108.572 125.63C109.141 125.873 109.755 125.996 110.416 125.996C111.089 125.996 111.704 125.873 112.261 125.63C112.829 125.386 113.322 125.05 113.739 124.621C114.157 124.18 114.482 123.67 114.714 123.09C114.946 122.498 115.063 121.86 115.063 121.176C115.063 120.492 114.946 119.859 114.714 119.279C114.482 118.699 114.157 118.189 113.739 117.748C113.322 117.308 112.829 116.965 112.261 116.722C111.704 116.478 111.089 116.356 110.416 116.356ZM128.823 116.356C128.151 116.356 127.53 116.478 126.962 116.722C126.405 116.965 125.918 117.307 125.5 117.748C125.083 118.189 124.758 118.7 124.526 119.279C124.306 119.859 124.195 120.492 124.195 121.176C124.195 121.86 124.306 122.498 124.526 123.09C124.758 123.67 125.083 124.18 125.5 124.621C125.918 125.05 126.411 125.386 126.98 125.63C127.548 125.873 128.162 125.996 128.823 125.996C129.496 125.996 130.111 125.873 130.668 125.63C131.236 125.386 131.729 125.05 132.147 124.621C132.564 124.18 132.889 123.67 133.121 123.09C133.353 122.498 133.469 121.86 133.469 121.176C133.469 120.492 133.353 119.859 133.121 119.279C132.889 118.699 132.564 118.189 132.147 117.748C131.729 117.307 131.236 116.965 130.668 116.722C130.111 116.478 129.496 116.356 128.823 116.356ZM90.9923 125.839H94.5763C95.2606 125.839 95.806 125.653 96.212 125.282C96.618 124.899 96.8214 124.395 96.8214 123.769C96.8214 123.131 96.618 122.626 96.212 122.255C95.806 121.872 95.2605 121.681 94.5763 121.681H90.9923V125.839ZM90.9923 119.871H94.4552C95.0118 119.871 95.4587 119.715 95.795 119.401C96.1313 119.077 96.2989 118.653 96.2989 118.131C96.2988 117.609 96.1313 117.203 95.795 116.913C95.4587 116.623 95.0118 116.479 94.4552 116.479H90.9923V119.871ZM64.6759 0C65.4594 3.55845e-05 70.9391 0.261115 72.8966 0.391602C84.38 1.69653 95.864 5.87182 104.085 14.4844C105.39 15.7893 106.564 17.356 107.608 18.9219C109.043 18.2694 110.479 17.7476 112.045 17.2256C113.611 16.9646 115.047 16.5723 116.612 16.5723C118.7 16.3114 120.658 16.5732 122.224 17.2256C123.92 17.8781 125.747 19.3131 126.008 21.1396C126.138 21.7921 126.008 22.5757 125.616 23.0977C125.225 23.75 124.442 23.8802 123.789 22.9668C122.876 21.9228 122.745 20.3571 121.962 19.1826C121.44 18.2692 120.526 17.7473 119.483 17.4863C118.7 17.3559 118.047 17.4863 117.265 17.4863C114.524 17.6168 111.132 18.6609 108.261 19.9658C108.783 20.8791 109.304 21.7927 109.695 22.7061C114.915 33.6674 114.394 47.2382 110.609 58.3301C101.736 83.9067 76.4202 106.613 43.797 105.178C41.3176 105.047 38.8379 104.786 36.3585 104.395C36.3104 104.387 27.213 102.953 22.9181 100.61C22.9181 100.61 14.6966 103.22 11.3038 103.09C9.86842 102.959 8.43328 102.567 7.25888 101.523C5.954 100.349 5.9539 98.2617 7.91122 97.2178C9.8685 96.1739 12.2172 96.0428 14.044 96.3037C15.3488 96.4342 16.6539 96.8259 17.8282 97.0869C18.6111 97.3479 21.6124 98.5223 23.0479 99.1748C29.5724 97.8699 34.5312 95.5208 36.6192 94.2158C47.9721 88.0826 56.7158 76.9911 63.6319 66.1602C74.2019 49.3265 86.8598 30.1444 104.737 20.3574C105.129 20.0965 105.52 19.8346 105.911 19.7041C105.128 18.2688 104.084 16.8331 102.779 15.5283C93.9059 5.87214 80.8568 2.74059 72.6358 1.82715C70.1568 1.69667 65.0686 1.56644 64.6759 1.56641C46.5373 1.56641 28.7896 9.26512 16.7843 22.3145C6.47541 33.4064 -2.52827 50.762 3.34384 65.7686C5.82318 72.2931 11.9562 76.8609 19.2638 77.7744C18.7418 75.4255 18.7423 72.4237 18.7423 72.0322C18.6118 68.3784 19.0033 64.9852 19.7862 61.4619C20.4387 58.3302 21.4829 55.3287 22.6573 52.458C25.1367 46.586 28.7904 40.8439 33.3575 36.4072C36.7502 33.2755 40.274 30.5355 44.5802 28.5781C48.4949 26.7513 53.0621 25.8381 57.3683 26.6211C61.5439 27.4041 64.9364 30.2746 66.2413 34.4502C68.8508 43.5834 60.633 55.8478 60.2393 56.373C46.2766 76.469 28.6594 79.0789 22.7872 79.3398H22.6573C22.0051 79.4703 21.4829 79.4707 21.2218 79.4707C22.1352 83.7768 23.9622 87.9523 26.4415 92.1279C25.9195 92.2584 25.3971 92.3896 24.8751 92.3896C22.2652 88.2139 20.5688 83.7766 19.6554 79.3398C11.5649 78.5568 4.64863 73.598 1.90829 66.4209C-4.0942 50.6314 5.04003 32.7539 15.7403 21.2705C28.0067 7.8297 46.2763 0 64.6759 0ZM105.39 21.6621C93.3844 30.5357 86.3371 43.3235 78.377 55.5898C78.1161 55.9813 77.8552 56.2424 77.7247 56.6338C66.7633 75.1637 51.8875 93.8243 25.7892 99.8271C25.7892 99.8271 25.267 99.9574 24.7452 100.088C28.1381 101.915 37.533 103.611 42.6222 103.611C54.758 103.611 68.8515 99.044 79.9434 90.6924C92.4708 81.2967 109.174 56.3727 109.435 34.7109C109.565 29.6218 108.782 25.0546 106.564 20.8789C106.172 21.1398 105.781 21.4012 105.39 21.6621ZM188.996 29.4912C188.996 29.4912 147.109 83.6436 145.672 85.4727C143.193 88.6045 140.713 92.3892 139.017 96.043C138.756 96.6954 138.234 97.7395 138.495 98.5225C138.625 99.2996 139.783 99.1766 139.8 99.1748C141.496 98.9138 144.629 96.6951 148.674 92.7803C149.848 91.7364 151.023 90.562 152.197 89.3877C155.46 85.8645 159.113 82.08 160.94 79.9922C161.068 79.8642 161.321 79.7364 161.331 79.7314C161.335 79.7314 161.339 79.7314 161.343 79.7314C162.781 78.2043 165.87 74.8432 166.854 73.8594C168.811 71.902 171.16 69.814 174.161 67.5957C178.859 64.2029 182.252 63.9414 184.732 63.9414C185.123 63.9414 186.296 63.8114 186.298 63.9414C183.819 66.9428 172.204 83.1245 171.029 84.6904C169.333 87.1696 168.029 89.1274 166.724 91.3457C165.68 93.1726 164.245 96.4345 165.419 98.1309C166.072 99.0441 167.376 99.0439 167.376 99.0439C171.291 99.0438 179.121 91.4756 180.687 89.3877C180.948 88.8652 182.774 86.6477 183.427 85.7344C183.949 85.0819 191.387 75.4252 196.346 69.292C201.304 63.5504 204.828 63.9414 207.177 63.9414H208.742C208.742 63.9414 193.475 82.8635 192.17 84.6904C190.474 87.1698 188.777 89.7797 187.472 91.998C186.819 93.3033 185.123 97.0871 185.906 98.5225C186.037 98.9138 186.428 99.0439 186.95 99.0439C188.908 99.0435 193.475 95.39 199.347 89.3877C202.74 85.8644 206.263 82.0801 208.09 79.9922C208.121 79.9765 208.15 79.9589 208.178 79.9434C209.294 78.702 213.499 74.4954 214.657 73.3369C221.573 66.5514 226.533 63.5499 230.447 63.9414C233.187 64.2024 234.884 65.1162 235.797 66.8125C237.102 69.2919 235.798 72.9459 235.015 74.9033C237.494 71.7714 244.28 63.9414 248.847 63.9414C250.804 63.9415 252.239 64.986 252.239 66.9434C252.109 69.9447 248.586 73.9894 245.323 73.7285C244.41 73.598 243.757 73.337 243.496 72.6846C242.974 71.7711 243.888 70.3355 244.54 69.1611C245.323 67.7259 245.062 67.7256 244.932 67.7256C243.366 67.7256 239.582 71.5105 238.407 72.8154C236.189 75.2948 234.884 76.73 231.752 81.0361C229.142 84.2984 225.88 90.04 224.836 92.5195C223.792 94.9989 223.531 96.8262 224.184 97.8701C224.706 98.6528 225.619 99.0439 227.054 99.0439C227.837 99.0439 228.881 98.7837 230.056 98.2617C232.535 97.2177 236.841 93.8243 241.8 88.9961C245.323 85.4728 249.238 81.6884 251.195 79.6006C251.29 79.506 251.454 79.412 251.586 79.3672C258.065 72.9047 263.524 69.0146 270.403 65.8994C272.23 64.986 275.101 63.9414 277.711 63.9414C279.538 63.9414 281.626 64.4636 282.278 66.4209C282.67 67.5953 282.67 69.1619 281.887 70.4668C280.843 72.685 279.147 74.7732 276.798 76.7305C269.36 82.8635 261.4 85.0819 255.919 85.7344C254.353 88.8662 253.309 91.8673 253.048 94.3467C252.917 96.0429 253.178 97.4781 253.961 98.3916C256.049 100.61 260.877 99.5666 263.357 98.2617C270.925 93.9555 277.319 87.1693 283.844 79.9922C283.972 79.7361 284.226 79.7315 284.235 79.7314C284.496 79.7314 284.497 79.7318 284.627 79.8623C284.888 80.1232 284.888 80.384 284.627 80.7754C276.928 89.6488 270.142 95.9126 263.487 99.5664C260.617 101.263 257.093 102.046 254.353 102.046C251.221 102.046 247.567 101.002 246.393 97.8701C244.566 93.0419 248.35 85.6034 250.829 82.0801C251.221 81.5581 251.612 81.036 251.873 80.6445C251.743 80.6447 251.743 80.7754 251.612 80.7754L251.609 80.7744C249.621 82.8524 242.956 89.4155 242.713 89.7793C239.19 93.1721 234.362 97.8703 229.403 100.35C227.968 101.002 225.357 102.046 222.878 102.046C220.529 102.046 218.833 101.132 217.92 99.3057C216.354 96.4349 218.572 91.4759 219.746 89.127C218.706 90.2971 217.278 91.9858 217.268 91.998C216.876 92.52 208.132 102.959 202.391 102.959C200.042 102.959 198.737 101.654 198.737 99.8271C198.868 96.8259 202.521 92.7805 205.914 93.1719C206.958 93.3024 207.611 93.564 207.872 94.0859C208.394 95.1298 207.48 96.565 206.697 97.7393C205.93 99.0177 206.165 99.1692 206.175 99.1748C207.871 99.4358 210.743 97.3477 214.657 93.1719C214.685 93.1412 218.323 89.111 221.573 84.9512C221.965 84.4292 224.575 80.5146 224.575 80.5146C226.794 77.3828 228.359 74.7723 229.403 72.293C230.708 69.1614 230.577 67.4652 229.142 66.5518C228.881 66.4213 228.359 66.291 227.837 66.291C225.88 66.2911 222.747 67.8566 220.79 69.292C218.963 70.7273 217.659 71.9018 216.484 73.0762C216.093 73.4676 215.832 73.7287 215.441 74.1201C214.919 74.5116 209.438 80.1217 209.046 80.6445C208.94 80.7506 208.855 80.8345 208.775 80.8975C207.352 82.6959 200.515 89.7889 200.26 90.1709C195.04 95.5211 187.863 102.046 183.296 102.046C182.644 102.046 182.121 102.046 181.469 101.915C180.425 101.654 179.642 101.001 179.251 100.088C178.207 98.0001 178.598 94.8689 179.512 92.3896C178.729 93.0424 176.249 95.3906 176.249 95.3906C171.682 99.3053 167.898 101.524 164.897 102.046H163.722C161.765 102.046 160.199 101.393 159.025 100.088C156.676 97.6086 158.111 93.5638 159.938 89.9102C162.417 84.9514 172.988 71.249 175.467 68.1172C172.857 69.6831 170.247 71.9022 167.507 74.6426C166.724 75.556 164.505 78.0347 163.069 79.6006C162.286 80.3835 161.764 81.0365 161.634 81.167C161.513 81.2875 161.365 81.3494 161.214 81.3584C159.155 83.6721 153.334 89.8161 152.98 90.1709C152.066 91.2148 150.761 92.52 149.587 93.6943C143.845 99.175 139.278 101.915 136.016 102.046C135.999 102.047 132.752 102.17 131.971 99.958C130.796 96.6957 134.319 91.4756 136.407 88.3438C136.67 87.9499 143.971 77.781 144.236 77.3828C142.671 79.2096 140.975 81.167 140.975 81.167L140.714 81.2969C140.696 81.3061 140.677 81.3128 140.658 81.3184C133.154 89.9037 126.513 95.9879 119.995 99.5664C117.125 101.263 113.602 102.046 110.861 102.046C107.73 102.046 104.076 101.002 102.901 97.8701C101.075 93.0419 104.859 85.6034 107.338 82.0801C107.729 81.5582 108.121 81.036 108.382 80.6445C108.252 80.6445 108.251 80.7751 108.121 80.7754C107.86 80.7754 107.73 80.645 107.73 80.5146C107.338 80.1232 107.729 79.7317 107.99 79.4707C114.515 72.946 119.996 69.0313 126.912 65.8994C128.739 64.986 131.61 63.9414 134.22 63.9414C136.047 63.9415 138.135 64.4636 138.787 66.4209C139.179 67.5953 139.179 69.1619 138.396 70.4668C137.352 72.6851 135.655 74.7731 133.306 76.7305C125.868 82.8634 117.907 85.0819 112.427 85.7344C110.861 88.8661 109.817 91.8674 109.556 94.3467C109.425 96.043 109.687 97.4782 110.47 98.3916C112.558 100.61 117.386 99.5666 119.865 98.2617C127.434 93.9554 133.828 87.1693 140.353 79.9922C140.483 79.7313 140.744 79.7314 140.744 79.7314C140.761 79.7314 140.777 79.7314 140.792 79.7314C143.035 77.148 153.14 65.2005 153.632 64.4639V64.5938C153.897 64.0661 176.73 34.8416 178.557 32.7539C180.905 29.8832 185.081 29.4912 187.43 29.4912H188.996ZM132.914 67.2041C133.175 65.6382 131.871 65.508 130.696 65.8994C128.478 66.6824 126.129 68.3788 123.389 71.1191C119.343 75.2949 115.82 79.7318 113.341 84.0381C116.603 83.1246 120.126 81.167 121.562 80.123C126.781 76.4692 130.436 72.8153 132.132 69.292C132.654 68.5091 132.914 67.726 132.914 67.2041ZM276.406 67.2041C276.667 65.6382 275.362 65.5079 274.188 65.8994C271.969 66.6824 269.62 68.3789 266.88 71.1191C262.835 75.2949 259.311 79.7319 256.832 84.0381C260.094 83.1247 263.617 81.1671 265.053 80.123C270.273 76.4693 273.927 72.8153 275.623 69.292C276.145 68.5091 276.406 67.7261 276.406 67.2041ZM58.2813 28.4473C57.2359 28.0554 46.5359 24.9253 32.5743 39.2783C32.4438 39.4088 27.6158 44.7592 23.962 53.2412C22.9181 55.851 21.8742 58.7218 21.2218 61.8535C20.4388 65.3768 20.0467 69.2922 20.3077 73.207C20.3077 74.7728 20.5692 76.3385 20.8302 77.9043H22.6573C39.8822 75.8161 52.6708 57.6776 56.0636 52.0664C58.5427 48.2823 60.3698 43.9764 61.2833 40.1924C62.9797 33.2762 61.6742 29.6217 58.2813 28.4473Z" fill="#EFEBEA"/>
</g>
<defs>
<clipPath id="clip0_636_1006">
<rect width="285" height="128" fill="white"/>
</clipPath>
</defs>
</svg>
